<svg width="200" height="214" viewBox="0 0 200 214" fill="none" xmlns="http://www.w3.org/2000/svg">
<path fill-rule="evenodd" clip-rule="evenodd" d="M113.818 160.887C113.818 161.998 114.715 162.898 115.822 162.898H123.839C124.946 162.898 125.843 161.998 125.843 160.887V158.876C125.843 156.655 127.638 154.854 129.852 154.854C132.066 154.854 133.86 156.655 133.86 158.876V160.887C133.86 161.998 134.758 162.898 135.865 162.898H143.38C144.487 162.898 145.385 161.998 145.385 160.887V158.876C145.385 156.655 147.179 154.854 149.393 154.854C151.607 154.854 153.402 156.655 153.402 158.876V160.887C153.402 161.998 154.299 162.898 155.406 162.898H160.416C161.523 162.898 162.421 161.998 162.421 160.887V158.625C162.421 156.542 164.103 154.854 166.179 154.854C168.254 154.854 169.937 156.542 169.937 158.625V160.887C169.937 161.998 170.834 162.898 171.941 162.898H174.034C175.106 162.898 175.99 162.054 175.982 160.979C175.952 156.91 175.329 150.712 172.943 148.318C174.947 146.977 178.956 142.586 178.956 135.748C179.096 133.64 179.384 129.266 177.97 126.844C177.467 125.983 176.398 125.797 175.407 125.695C172.375 125.383 167.821 123.229 165.928 116.14C163.256 109.268 157.911 95.5262 153.903 95.5257C152.399 95.5257 150.896 97.0345 148.892 104.073C147.389 110.609 141.176 123.682 128.349 123.682H97.2831C87.3209 123.682 79.245 115.578 79.245 105.582V93.515L31.1434 92.0067C29.6402 91.8391 26.6339 90.5989 26.6339 86.9789C26.8009 85.3029 27.9366 81.9511 31.1434 81.9511L96.639 72.4191C96.7342 72.4052 96.8304 72.3982 96.9266 72.3982H170.887C172.014 72.3982 172.923 71.4694 172.838 70.3418C171.313 50.1796 154.486 13.5729 96.7821 13.5729C71.8961 13.9081 20.6212 28.053 14.6085 81.9511C11.101 107.09 20.2203 152.441 56.6974 138.765C57.6441 138.607 57.8362 137.326 56.9777 136.895L55.6952 136.251C52.3058 134.409 45.5488 130.003 41.8463 125.281C40.9469 124.134 41.8016 122.618 43.2559 122.626C52.2764 122.673 67.3255 124.291 73.7333 130.721C76.9066 134.575 85.2576 142.285 93.2745 142.285H100.764C103.778 142.285 106.918 142.445 109.422 144.129C111.711 145.668 113.818 148.162 113.818 151.838L113.818 160.887ZM145.609 129.689C144.795 131.308 144.622 133.241 145.562 134.789C148.635 139.848 153.566 138.307 155.907 136.251C158.283 138.338 163.327 139.894 166.388 134.557C167.208 133.129 167.12 131.384 166.558 129.835C164.474 124.095 161.257 115.637 156.909 115.637C153.137 115.637 147.945 125.041 145.609 129.689Z" fill="white"/>
<path d="M92.6789 152.843C91.6096 152.843 90.7264 153.682 90.7047 154.755C90.4834 165.666 92.475 184.895 102.294 187.535C114.152 191.39 142.779 199.3 162.421 200.105C166.93 200.272 175.949 198.697 175.949 191.055L175.949 174.966C175.949 173.855 175.052 172.954 173.945 172.954H171.44C170.333 172.954 169.435 173.855 169.435 174.966V177.228C169.435 179.311 167.753 180.999 165.678 180.999C163.602 180.999 161.92 179.311 161.92 177.228V174.966C161.92 173.855 161.022 172.954 159.915 172.954H154.905C153.798 172.954 152.901 173.855 152.901 174.966V176.977C152.901 179.198 151.106 180.999 148.892 180.999C146.678 180.999 144.884 179.198 144.884 176.977V174.966C144.884 173.855 143.986 172.954 142.879 172.954H135.363C134.257 172.954 133.359 173.855 133.359 174.966V176.977C133.359 179.198 131.565 180.999 129.351 180.999C127.137 180.999 125.342 179.198 125.342 176.977V174.966C125.342 173.855 124.445 172.954 123.338 172.954H109.036C108.884 172.954 108.733 172.939 108.587 172.897C106.356 172.262 102.294 169.398 102.294 162.396C102.294 157.871 100.39 152.843 96.782 152.843H92.6789Z" fill="white"/>
<path fill-rule="evenodd" clip-rule="evenodd" d="M188.476 72.3982C191.512 72.3982 198.067 74.2083 200 81.4483V104.576C199.666 108.096 197.094 116.442 189.478 121.671C191.983 126.363 194.989 138.866 186.972 151.335C187.641 154.519 188.977 162.899 188.977 170.943V189.295C188.977 202.914 177.753 213.836 164.186 213.417L156.408 213.177C141.71 211.333 108.607 205.937 93.7756 199.099C89.2661 196.92 79.8462 189.747 78.2428 178.485C78.5768 172.234 76.7396 159.057 66.7184 156.363C55.1941 157.871 29.4397 157.368 18.6168 145.301C11.936 137.592 -1.12488 117.85 0.0776607 100.554V83.9622C0.578725 56.4768 21.1221 1.30502 99.2873 0.500566C125.175 -0.672589 179.256 12.0645 188.476 72.3982ZM125.843 160.887C125.843 161.998 124.946 162.898 123.839 162.898H115.822C114.715 162.898 113.818 161.998 113.818 160.887L113.818 151.838C113.818 148.162 111.711 145.668 109.422 144.129C106.918 142.445 103.778 142.285 100.764 142.285H93.2745C85.2576 142.285 76.9066 134.575 73.7333 130.721C67.3255 124.291 52.2764 122.673 43.2559 122.626C41.8016 122.618 40.9469 124.134 41.8463 125.281C45.5488 130.003 52.3058 134.409 55.6952 136.251L56.9777 136.895C57.8362 137.326 57.6441 138.607 56.6974 138.765C20.2203 152.441 11.101 107.09 14.6085 81.9511C20.6212 28.053 71.8961 13.9081 96.7821 13.5729C154.486 13.5729 171.313 50.1796 172.838 70.3418C172.923 71.4694 172.014 72.3982 170.887 72.3982H96.9266C96.8304 72.3982 96.7342 72.4052 96.639 72.4191L31.1434 81.9511C27.9366 81.9511 26.8009 85.3029 26.6339 86.9789C26.6339 90.5989 29.6402 91.8391 31.1434 92.0067L79.245 93.515V105.582C79.245 115.578 87.3209 123.682 97.2831 123.682H128.349C141.176 123.682 147.389 110.609 148.892 104.073C150.896 97.0345 152.399 95.5257 153.903 95.5257C157.911 95.5262 163.256 109.268 165.928 116.14C167.821 123.229 172.375 125.383 175.407 125.695C176.398 125.797 177.467 125.983 177.97 126.844C179.384 129.266 179.096 133.64 178.956 135.748C178.956 142.586 174.947 146.977 172.943 148.318C175.329 150.712 175.952 156.91 175.982 160.979C175.99 162.054 175.106 162.898 174.034 162.898H171.941C170.834 162.898 169.937 161.998 169.937 160.887V158.625C169.937 156.542 168.254 154.854 166.179 154.854C164.103 154.854 162.421 156.542 162.421 158.625V160.887C162.421 161.998 161.523 162.898 160.416 162.898H155.406C154.299 162.898 153.402 161.998 153.402 160.887V158.876C153.402 156.655 151.607 154.854 149.393 154.854C147.179 154.854 145.385 156.655 145.385 158.876V160.887C145.385 161.998 144.487 162.898 143.38 162.898H135.865C134.758 162.898 133.86 161.998 133.86 160.887V158.876C133.86 156.655 132.066 154.854 129.852 154.854C127.638 154.854 125.843 156.655 125.843 158.876V160.887ZM102.294 187.535C92.475 184.895 90.4834 165.666 90.7047 154.755C90.7264 153.682 91.6096 152.843 92.6789 152.843H96.782C100.39 152.843 102.294 157.871 102.294 162.396C102.294 169.398 106.356 172.262 108.587 172.897C108.733 172.939 108.884 172.954 109.036 172.954H123.338C124.445 172.954 125.342 173.855 125.342 174.966V176.977C125.342 179.198 127.137 180.999 129.351 180.999C131.565 180.999 133.359 179.198 133.359 176.977V174.966C133.359 173.855 134.257 172.954 135.363 172.954H142.879C143.986 172.954 144.884 173.855 144.884 174.966V176.977C144.884 179.198 146.678 180.999 148.892 180.999C151.106 180.999 152.901 179.198 152.901 176.977V174.966C152.901 173.855 153.798 172.954 154.905 172.954H159.915C161.022 172.954 161.92 173.855 161.92 174.966V177.228C161.92 179.311 163.602 180.999 165.678 180.999C167.753 180.999 169.435 179.311 169.435 177.228V174.966C169.435 173.855 170.333 172.954 171.44 172.954H173.945C175.052 172.954 175.949 173.855 175.949 174.966L175.949 191.055C175.949 198.697 166.93 200.272 162.421 200.105C142.779 199.3 114.152 191.39 102.294 187.535Z" fill="black"/>
<path d="M155.907 136.251C153.566 138.307 148.635 139.848 145.562 134.789C144.622 133.241 144.795 131.308 145.609 129.689C147.945 125.041 153.137 115.637 156.909 115.637C161.257 115.637 164.474 124.095 166.558 129.835C167.12 131.384 167.208 133.129 166.388 134.557C163.327 139.894 158.283 138.338 155.907 136.251Z" fill="black"/>
<path d="M184.968 98.5427C184.968 104.096 180.482 108.598 174.947 108.598C169.413 108.598 164.926 104.096 164.926 98.5427C164.926 92.9891 169.413 88.4871 174.947 88.4871C180.482 88.4871 184.968 92.9891 184.968 98.5427Z" fill="#EE2323"/>
</svg>
